<svg width="392" height="120" viewBox="0 0 392 120" fill="none" xmlns="http://www.w3.org/2000/svg">
<path d="M25.875 34.293H20.3379V28H6.39844V34.2754H0.685547L0.246094 23.2539H2.05664C3.00586 22.6211 3.76758 21.5371 4.3418 20.002C4.92773 18.4551 5.34375 16.2402 5.58984 13.3574L6.38086 2.40625H23.8008V23.2539H26.5254L25.875 34.293ZM9.03516 23.2539H17.6484V7.16992H12.1992L11.7246 13.5684C11.373 17.7168 10.4766 20.9453 9.03516 23.2539ZM27.6328 18.3145C27.6328 16.416 28.002 14.7285 28.7402 13.252C29.4785 11.7637 30.5391 10.6211 31.9219 9.82422C33.3047 9.02734 34.9277 8.62891 36.791 8.62891C39.6387 8.62891 41.8828 9.51367 43.5234 11.2832C45.1641 13.041 45.9844 15.4375 45.9844 18.4727V18.6836C45.9844 21.6484 45.1582 24.0039 43.5059 25.75C41.8652 27.4844 39.6387 28.3516 36.8262 28.3516C34.1191 28.3516 31.9453 27.543 30.3047 25.9258C28.6641 24.2969 27.7793 22.0938 27.6504 19.3164L27.6328 18.3145ZM33.5566 18.6836C33.5566 20.4414 33.832 21.7305 34.3828 22.5508C34.9336 23.3711 35.748 23.7812 36.8262 23.7812C38.9355 23.7812 40.0137 22.1582 40.0605 18.9121V18.3145C40.0605 14.9043 38.9707 13.1992 36.791 13.1992C34.8105 13.1992 33.7383 14.6699 33.5742 17.6113L33.5566 18.6836ZM56.6367 23.7812C57.4688 23.7812 58.1133 23.5586 58.5703 23.1133C59.0273 22.6562 59.25 22.0234 59.2383 21.2148H64.793C64.793 23.3008 64.043 25.0117 62.543 26.3477C61.0547 27.6836 59.1328 28.3516 56.7773 28.3516C54.0117 28.3516 51.832 27.4844 50.2383 25.75C48.6445 24.0156 47.8477 21.6133 47.8477 18.543V18.2969C47.8477 16.375 48.1992 14.6816 48.9023 13.2168C49.6172 11.7402 50.6426 10.6094 51.9785 9.82422C53.3145 9.02734 54.8965 8.62891 56.7246 8.62891C59.1973 8.62891 61.1602 9.31445 62.6133 10.6855C64.0664 12.0566 64.793 13.9141 64.793 16.2578H59.2383C59.2383 15.2734 58.998 14.5176 58.5176 13.9902C58.0371 13.4629 57.3926 13.1992 56.584 13.1992C55.0488 13.1992 54.1523 14.1777 53.8945 16.1348C53.8125 16.7559 53.7715 17.6113 53.7715 18.7012C53.7715 20.6113 54 21.9355 54.457 22.6738C54.9141 23.4121 55.6406 23.7812 56.6367 23.7812ZM83.9531 13.5156H77.959V28H72V13.5156H66.0938V8.98047H83.9531V13.5156ZM96.6094 28C96.3984 27.6133 96.2109 27.0449 96.0469 26.2949C94.957 27.666 93.4336 28.3516 91.4766 28.3516C89.6836 28.3516 88.1602 27.8125 86.9062 26.7344C85.6523 25.6445 85.0254 24.2793 85.0254 22.6387C85.0254 20.5762 85.7871 19.0176 87.3105 17.9629C88.834 16.9082 91.0488 16.3809 93.9551 16.3809H95.7832V15.3789C95.7832 13.6328 95.0273 12.7598 93.5156 12.7598C92.1094 12.7598 91.4062 13.4512 91.4062 14.834H85.4824C85.4824 12.9941 86.2617 11.5 87.8203 10.3516C89.3906 9.20313 91.3887 8.62891 93.8145 8.62891C96.2402 8.62891 98.1562 9.2207 99.5625 10.4043C100.969 11.5879 101.689 13.2109 101.725 15.2734V23.6934C101.748 25.4395 102.018 26.7754 102.533 27.7012V28H96.6094ZM92.9004 24.1328C93.6387 24.1328 94.248 23.9746 94.7285 23.6582C95.2207 23.3418 95.5723 22.9844 95.7832 22.5859V19.5449H94.0605C91.998 19.5449 90.9668 20.4707 90.9668 22.3223C90.9668 22.8613 91.1484 23.3008 91.5117 23.6406C91.875 23.9688 92.3379 24.1328 92.9004 24.1328ZM105.416 28V8.98047H113.572C116.186 8.98047 118.184 9.4375 119.566 10.3516C120.961 11.2656 121.658 12.584 121.658 14.3066C121.658 15.1855 121.354 15.9766 120.744 16.6797C120.135 17.3711 119.244 17.9043 118.072 18.2793C119.584 18.5371 120.75 19.041 121.57 19.791C122.391 20.5293 122.801 21.4551 122.801 22.5684C122.801 24.3613 122.121 25.7148 120.762 26.6289C119.414 27.5312 117.469 27.9883 114.926 28H105.416ZM111.357 20.248V23.4648H114.82C115.559 23.4648 116.086 23.3359 116.402 23.0781C116.719 22.8203 116.877 22.4277 116.877 21.9004C116.877 20.8457 116.268 20.2949 115.049 20.248H111.357ZM111.357 16.5918H113.801C114.516 16.5918 115.014 16.4746 115.295 16.2402C115.588 15.9941 115.734 15.6367 115.734 15.168C115.734 14.5586 115.559 14.1309 115.207 13.8848C114.855 13.6387 114.311 13.5156 113.572 13.5156H111.357V16.5918ZM133.348 21.3555H131.572V28H125.631V8.98047H131.572V15.8184H133.277L136.301 8.98047H143.895L138.34 17.7695H138.357L144.457 28H136.424L133.348 21.3555ZM156.586 28C156.375 27.6133 156.188 27.0449 156.023 26.2949C154.934 27.666 153.41 28.3516 151.453 28.3516C149.66 28.3516 148.137 27.8125 146.883 26.7344C145.629 25.6445 145.002 24.2793 145.002 22.6387C145.002 20.5762 145.764 19.0176 147.287 17.9629C148.811 16.9082 151.025 16.3809 153.932 16.3809H155.76V15.3789C155.76 13.6328 155.004 12.7598 153.492 12.7598C152.086 12.7598 151.383 13.4512 151.383 14.834H145.459C145.459 12.9941 146.238 11.5 147.797 10.3516C149.367 9.20313 151.365 8.62891 153.791 8.62891C156.217 8.62891 158.133 9.2207 159.539 10.4043C160.945 11.5879 161.666 13.2109 161.701 15.2734V23.6934C161.725 25.4395 161.994 26.7754 162.51 27.7012V28H156.586ZM152.877 24.1328C153.615 24.1328 154.225 23.9746 154.705 23.6582C155.197 23.3418 155.549 22.9844 155.76 22.5859V19.5449H154.037C151.975 19.5449 150.943 20.4707 150.943 22.3223C150.943 22.8613 151.125 23.3008 151.488 23.6406C151.852 23.9688 152.314 24.1328 152.877 24.1328ZM174.357 28V8.98047H182.514C185.127 8.98047 187.125 9.4375 188.508 10.3516C189.902 11.2656 190.6 12.584 190.6 14.3066C190.6 15.1855 190.295 15.9766 189.686 16.6797C189.076 17.3711 188.186 17.9043 187.014 18.2793C188.525 18.5371 189.691 19.041 190.512 19.791C191.332 20.5293 191.742 21.4551 191.742 22.5684C191.742 24.3613 191.062 25.7148 189.703 26.6289C188.355 27.5312 186.41 27.9883 183.867 28H174.357ZM180.299 20.248V23.4648H183.762C184.5 23.4648 185.027 23.3359 185.344 23.0781C185.66 22.8203 185.818 22.4277 185.818 21.9004C185.818 20.8457 185.209 20.2949 183.99 20.248H180.299ZM180.299 16.5918H182.742C183.457 16.5918 183.955 16.4746 184.236 16.2402C184.529 15.9941 184.676 15.6367 184.676 15.168C184.676 14.5586 184.5 14.1309 184.148 13.8848C183.797 13.6387 183.252 13.5156 182.514 13.5156H180.299V16.5918ZM202.289 21.3555H200.514V28H194.572V8.98047H200.514V15.8184H202.219L205.242 8.98047H212.836L207.281 17.7695H207.299L213.398 28H205.365L202.289 21.3555ZM222.416 19.7031L225.58 8.98047H231.926L224.174 31.1816L223.84 31.9902C222.738 34.4512 220.793 35.6816 218.004 35.6816C217.23 35.6816 216.416 35.5645 215.561 35.3301V31.0938H216.334C217.166 31.0938 217.799 30.9707 218.232 30.7246C218.678 30.4902 219.006 30.0625 219.217 29.4414L219.691 28.1758L213.082 8.98047H219.41L222.416 19.7031ZM241.277 23.7812C242.109 23.7812 242.754 23.5586 243.211 23.1133C243.668 22.6562 243.891 22.0234 243.879 21.2148H249.434C249.434 23.3008 248.684 25.0117 247.184 26.3477C245.695 27.6836 243.773 28.3516 241.418 28.3516C238.652 28.3516 236.473 27.4844 234.879 25.75C233.285 24.0156 232.488 21.6133 232.488 18.543V18.2969C232.488 16.375 232.84 14.6816 233.543 13.2168C234.258 11.7402 235.283 10.6094 236.619 9.82422C237.955 9.02734 239.537 8.62891 241.365 8.62891C243.838 8.62891 245.801 9.31445 247.254 10.6855C248.707 12.0566 249.434 13.9141 249.434 16.2578H243.879C243.879 15.2734 243.639 14.5176 243.158 13.9902C242.678 13.4629 242.033 13.1992 241.225 13.1992C239.689 13.1992 238.793 14.1777 238.535 16.1348C238.453 16.7559 238.412 17.6113 238.412 18.7012C238.412 20.6113 238.641 21.9355 239.098 22.6738C239.555 23.4121 240.281 23.7812 241.277 23.7812ZM268.875 28H262.934V20.9512H257.748V28H251.824V8.98047H257.748V16.3984H262.934V8.98047H268.875V28ZM271.371 18.3145C271.371 16.416 271.74 14.7285 272.479 13.252C273.217 11.7637 274.277 10.6211 275.66 9.82422C277.043 9.02734 278.666 8.62891 280.529 8.62891C283.377 8.62891 285.621 9.51367 287.262 11.2832C288.902 13.041 289.723 15.4375 289.723 18.4727V18.6836C289.723 21.6484 288.896 24.0039 287.244 25.75C285.604 27.4844 283.377 28.3516 280.564 28.3516C277.857 28.3516 275.684 27.543 274.043 25.9258C272.402 24.2969 271.518 22.0938 271.389 19.3164L271.371 18.3145ZM277.295 18.6836C277.295 20.4414 277.57 21.7305 278.121 22.5508C278.672 23.3711 279.486 23.7812 280.564 23.7812C282.674 23.7812 283.752 22.1582 283.799 18.9121V18.3145C283.799 14.9043 282.709 13.1992 280.529 13.1992C278.549 13.1992 277.477 14.6699 277.312 17.6113L277.295 18.6836ZM303.398 8.98047H309.34V28H303.398V16.9258L298.178 28H292.219V8.98047H298.178V20.0195L303.398 8.98047ZM307.424 0.964844C307.424 2.57031 306.832 3.87109 305.648 4.86719C304.465 5.86328 302.889 6.36133 300.92 6.36133C298.951 6.36133 297.375 5.86328 296.191 4.86719C295.008 3.87109 294.416 2.57031 294.416 0.964844H298.441C298.441 1.66797 298.658 2.21875 299.092 2.61719C299.537 3.00391 300.146 3.19727 300.92 3.19727C301.693 3.19727 302.291 3.00977 302.713 2.63477C303.146 2.24805 303.363 1.69141 303.363 0.964844H307.424ZM330.68 28.3516C327.762 28.3516 325.4 27.4844 323.596 25.75C321.791 24.0039 320.889 21.7363 320.889 18.9473V18.4551C320.889 16.5098 321.246 14.793 321.961 13.3047C322.688 11.8164 323.742 10.668 325.125 9.85938C326.508 9.03906 328.148 8.62891 330.047 8.62891C332.719 8.62891 334.828 9.46094 336.375 11.125C337.922 12.7773 338.695 15.0859 338.695 18.0508V20.3535H326.918C327.129 21.4199 327.592 22.2578 328.307 22.8672C329.021 23.4766 329.947 23.7812 331.084 23.7812C332.959 23.7812 334.424 23.125 335.479 21.8125L338.186 25.0117C337.447 26.0312 336.398 26.8457 335.039 27.4551C333.691 28.0527 332.238 28.3516 330.68 28.3516ZM330.012 13.1992C328.277 13.1992 327.246 14.3477 326.918 16.6445H332.895V16.1875C332.918 15.2383 332.678 14.5059 332.174 13.9902C331.67 13.4629 330.949 13.1992 330.012 13.1992ZM341.596 23.4297C342.545 22.4805 343.23 21.5371 343.652 20.5996C344.086 19.6621 344.338 18.5723 344.408 17.3301L344.461 16.0293L344.566 8.98047H359.385V23.4297H362.232V33.7656H356.291V28H345.99V33.7656H339.908L339.891 23.4297H341.596ZM348.416 23.4297H353.479V13.5508H350.438L350.42 15.1152C350.338 18.5371 349.67 21.3086 348.416 23.4297ZM370.617 14.2012H373.658C375.416 14.2012 376.963 14.4883 378.299 15.0625C379.635 15.6367 380.654 16.4512 381.357 17.5059C382.061 18.5605 382.412 19.7852 382.412 21.1797C382.412 23.2305 381.615 24.8828 380.021 26.1367C378.439 27.3789 376.277 28 373.535 28H364.658V8.98047H370.617V14.2012ZM391.184 28H385.225V8.98047H391.184V28ZM370.617 18.7539V23.4648H373.623C374.525 23.4648 375.229 23.2598 375.732 22.8496C376.248 22.4277 376.506 21.8594 376.506 21.1445C376.506 20.4414 376.277 19.8672 375.82 19.4219C375.363 18.9766 374.631 18.7539 373.623 18.7539H370.617ZM2.16211 65.4297C3.11133 64.4805 3.79688 63.5371 4.21875 62.5996C4.65234 61.6621 4.9043 60.5723 4.97461 59.3301L5.02734 58.0293L5.13281 50.9805H19.9512V65.4297H22.7988V75.7656H16.8574V70H6.55664V75.7656H0.474609L0.457031 65.4297H2.16211ZM8.98242 65.4297H14.0449V55.5508H11.0039L10.9863 57.1152C10.9043 60.5371 10.2363 63.3086 8.98242 65.4297ZM24.082 60.3145C24.082 58.416 24.4512 56.7285 25.1895 55.252C25.9277 53.7637 26.9883 52.6211 28.3711 51.8242C29.7539 51.0273 31.377 50.6289 33.2402 50.6289C36.0879 50.6289 38.332 51.5137 39.9727 53.2832C41.6133 55.041 42.4336 57.4375 42.4336 60.4727V60.6836C42.4336 63.6484 41.6074 66.0039 39.9551 67.75C38.3145 69.4844 36.0879 70.3516 33.2754 70.3516C30.5684 70.3516 28.3945 69.543 26.7539 67.9258C25.1133 66.2969 24.2285 64.0938 24.0996 61.3164L24.082 60.3145ZM30.0059 60.6836C30.0059 62.4414 30.2812 63.7305 30.832 64.5508C31.3828 65.3711 32.1973 65.7812 33.2754 65.7812C35.3848 65.7812 36.4629 64.1582 36.5098 60.9121V60.3145C36.5098 56.9043 35.4199 55.1992 33.2402 55.1992C31.2598 55.1992 30.1875 56.6699 30.0234 59.6113L30.0059 60.6836ZM59.3262 54.7246H62.1211C64.3359 54.7246 65.4434 53.6406 65.4434 51.4727C65.4434 50.6289 65.1797 49.9434 64.6523 49.416C64.125 48.877 63.3809 48.6074 62.4199 48.6074C61.6348 48.6074 60.9492 48.8359 60.3633 49.293C59.7891 49.75 59.502 50.3184 59.502 50.998H53.5781C53.5781 49.6504 53.9531 48.4492 54.7031 47.3945C55.4531 46.3398 56.4902 45.5195 57.8145 44.9336C59.1504 44.3359 60.6152 44.0371 62.209 44.0371C65.0566 44.0371 67.2949 44.6875 68.9238 45.9883C70.5527 47.2891 71.3672 49.0762 71.3672 51.3496C71.3672 52.4512 71.0273 53.4941 70.3477 54.4785C69.6797 55.4512 68.7012 56.2422 67.4121 56.8516C68.7715 57.3438 69.8379 58.0938 70.6113 59.1016C71.3848 60.0977 71.7715 61.334 71.7715 62.8105C71.7715 65.0957 70.8926 66.9238 69.1348 68.2949C67.377 69.666 65.0684 70.3516 62.209 70.3516C60.5332 70.3516 58.9746 70.0352 57.5332 69.4023C56.1035 68.7578 55.0195 67.873 54.2812 66.748C53.543 65.6113 53.1738 64.3223 53.1738 62.8809H59.1328C59.1328 63.666 59.4492 64.3457 60.082 64.9199C60.7148 65.4941 61.4941 65.7812 62.4199 65.7812C63.4629 65.7812 64.2949 65.4941 64.916 64.9199C65.5371 64.334 65.8477 63.5898 65.8477 62.6875C65.8477 61.3984 65.5254 60.4844 64.8809 59.9453C64.2363 59.4062 63.3457 59.1367 62.209 59.1367H59.3262V54.7246ZM92.5312 59.541C92.5312 62.998 91.752 65.6641 90.1934 67.5391C88.6465 69.4141 86.4609 70.3516 83.6367 70.3516C80.7891 70.3516 78.5859 69.4082 77.0273 67.5215C75.4688 65.6348 74.6895 62.9746 74.6895 59.541V54.8652C74.6895 51.4082 75.4629 48.7422 77.0098 46.8672C78.5684 44.9922 80.7656 44.0547 83.6016 44.0547C86.4375 44.0547 88.6348 44.998 90.1934 46.8848C91.752 48.7715 92.5312 51.4375 92.5312 54.8828V59.541ZM86.6074 54.1094C86.6074 52.2695 86.3672 50.8984 85.8867 49.9961C85.4062 49.082 84.6445 48.625 83.6016 48.625C82.582 48.625 81.8379 49.0469 81.3691 49.8906C80.9121 50.7344 80.666 52.0117 80.6309 53.7227V60.2617C80.6309 62.1719 80.8711 63.5723 81.3516 64.4629C81.832 65.3418 82.5938 65.7812 83.6367 65.7812C84.6445 65.7812 85.3887 65.3535 85.8691 64.498C86.3496 63.6309 86.5957 62.2773 86.6074 60.4375V54.1094ZM116.578 63.4609L120.885 50.9805H128.338V70H122.396V59.4531L118.564 70H114.627L111.006 60.0156V70H105.064V50.9805H112.342L116.578 63.4609ZM143.367 50.9805H149.309V70H143.367V58.9258L138.146 70H132.188V50.9805H138.146V62.0195L143.367 50.9805ZM169.418 70H163.477V62.9512H158.291V70H152.367V50.9805H158.291V58.3984H163.477V50.9805H169.418V70ZM180.264 61.7031L183.428 50.9805H189.773L182.021 73.1816L181.688 73.9902C180.586 76.4512 178.641 77.6816 175.852 77.6816C175.078 77.6816 174.264 77.5645 173.408 77.3301V73.0938H174.182C175.014 73.0938 175.646 72.9707 176.08 72.7246C176.525 72.4902 176.854 72.0625 177.064 71.4414L177.539 70.1758L170.93 50.9805H177.258L180.264 61.7031ZM207.984 55.5156H201.99V70H196.031V55.5156H190.125V50.9805H207.984V55.5156ZM229.852 55.4805H235.846V60.5605H229.852V67.4336H224.314V60.5605H218.303V55.4805H224.314V48.8008H229.852V55.4805ZM264.305 70H258.363V62.9512H253.178V70H247.254V50.9805H253.178V58.3984H258.363V50.9805H264.305V70ZM278.262 70C278.051 69.6133 277.863 69.0449 277.699 68.2949C276.609 69.666 275.086 70.3516 273.129 70.3516C271.336 70.3516 269.812 69.8125 268.559 68.7344C267.305 67.6445 266.678 66.2793 266.678 64.6387C266.678 62.5762 267.439 61.0176 268.963 59.9629C270.486 58.9082 272.701 58.3809 275.607 58.3809H277.436V57.3789C277.436 55.6328 276.68 54.7598 275.168 54.7598C273.762 54.7598 273.059 55.4512 273.059 56.834H267.135C267.135 54.9941 267.914 53.5 269.473 52.3516C271.043 51.2031 273.041 50.6289 275.467 50.6289C277.893 50.6289 279.809 51.2207 281.215 52.4043C282.621 53.5879 283.342 55.2109 283.377 57.2734V65.6934C283.4 67.4395 283.67 68.7754 284.186 69.7012V70H278.262ZM274.553 66.1328C275.291 66.1328 275.9 65.9746 276.381 65.6582C276.873 65.3418 277.225 64.9844 277.436 64.5859V61.5449H275.713C273.65 61.5449 272.619 62.4707 272.619 64.3223C272.619 64.8613 272.801 65.3008 273.164 65.6406C273.527 65.9688 273.99 66.1328 274.553 66.1328ZM303.68 70H297.721V55.5508H292.482V70H286.559V50.9805H303.68V70ZM317.918 50.9805H323.859V70H317.918V58.9258L312.697 70H306.738V50.9805H312.697V62.0195L317.918 50.9805ZM343.688 55.5156H337.693V70H331.734V55.5156H325.828V50.9805H343.688V55.5156ZM344.637 60.3145C344.637 58.416 345.006 56.7285 345.744 55.252C346.482 53.7637 347.543 52.6211 348.926 51.8242C350.309 51.0273 351.932 50.6289 353.795 50.6289C356.643 50.6289 358.887 51.5137 360.527 53.2832C362.168 55.041 362.988 57.4375 362.988 60.4727V60.6836C362.988 63.6484 362.162 66.0039 360.51 67.75C358.869 69.4844 356.643 70.3516 353.83 70.3516C351.123 70.3516 348.949 69.543 347.309 67.9258C345.668 66.2969 344.783 64.0938 344.654 61.3164L344.637 60.3145ZM350.561 60.6836C350.561 62.4414 350.836 63.7305 351.387 64.5508C351.938 65.3711 352.752 65.7812 353.83 65.7812C355.939 65.7812 357.018 64.1582 357.064 60.9121V60.3145C357.064 56.9043 355.975 55.1992 353.795 55.1992C351.814 55.1992 350.742 56.6699 350.578 59.6113L350.561 60.6836ZM373.711 63.3555H371.936V70H365.994V50.9805H371.936V57.8184H373.641L376.664 50.9805H384.258L378.703 59.7695H378.721L384.82 70H376.787L373.711 63.3555ZM2.05664 112V92.9805H10.2129C12.8262 92.9805 14.8242 93.4375 16.207 94.3516C17.6016 95.2656 18.2988 96.584 18.2988 98.3066C18.2988 99.1855 17.9941 99.9766 17.3848 100.68C16.7754 101.371 15.8848 101.904 14.7129 102.279C16.2246 102.537 17.3906 103.041 18.2109 103.791C19.0312 104.529 19.4414 105.455 19.4414 106.568C19.4414 108.361 18.7617 109.715 17.4023 110.629C16.0547 111.531 14.1094 111.988 11.5664 112H2.05664ZM7.99805 104.248V107.465H11.4609C12.1992 107.465 12.7266 107.336 13.043 107.078C13.3594 106.82 13.5176 106.428 13.5176 105.9C13.5176 104.846 12.9082 104.295 11.6895 104.248H7.99805ZM7.99805 100.592H10.4414C11.1562 100.592 11.6543 100.475 11.9355 100.24C12.2285 99.9941 12.375 99.6367 12.375 99.168C12.375 98.5586 12.1992 98.1309 11.8477 97.8848C11.4961 97.6387 10.9512 97.5156 10.2129 97.5156H7.99805V100.592ZM47.8477 112H41.8887V97.5508H36.6504V112H30.7266V92.9805H47.8477V112ZM50.2734 102.314C50.2734 100.416 50.6426 98.7285 51.3809 97.252C52.1191 95.7637 53.1797 94.6211 54.5625 93.8242C55.9453 93.0273 57.5684 92.6289 59.4316 92.6289C62.2793 92.6289 64.5234 93.5137 66.1641 95.2832C67.8047 97.041 68.625 99.4375 68.625 102.473V102.684C68.625 105.648 67.7988 108.004 66.1465 109.75C64.5059 111.484 62.2793 112.352 59.4668 112.352C56.7598 112.352 54.5859 111.543 52.9453 109.926C51.3047 108.297 50.4199 106.094 50.291 103.316L50.2734 102.314ZM56.1973 102.684C56.1973 104.441 56.4727 105.73 57.0234 106.551C57.5742 107.371 58.3887 107.781 59.4668 107.781C61.5762 107.781 62.6543 106.158 62.7012 102.912V102.314C62.7012 98.9043 61.6113 97.1992 59.4316 97.1992C57.4512 97.1992 56.3789 98.6699 56.2148 101.611L56.1973 102.684ZM70.4707 107.43C71.4199 106.48 72.1055 105.537 72.5273 104.6C72.9609 103.662 73.2129 102.572 73.2832 101.33L73.3359 100.029L73.4414 92.9805H88.2598V107.43H91.1074V117.766H85.166V112H74.8652V117.766H68.7832L68.7656 107.43H70.4707ZM77.291 107.43H82.3535V97.5508H79.3125L79.2949 99.1152C79.2129 102.537 78.5449 105.309 77.291 107.43ZM103.852 112C103.641 111.613 103.453 111.045 103.289 110.295C102.199 111.666 100.676 112.352 98.7188 112.352C96.9258 112.352 95.4023 111.812 94.1484 110.734C92.8945 109.645 92.2676 108.279 92.2676 106.639C92.2676 104.576 93.0293 103.018 94.5527 101.963C96.0762 100.908 98.291 100.381 101.197 100.381H103.025V99.3789C103.025 97.6328 102.27 96.7598 100.758 96.7598C99.3516 96.7598 98.6484 97.4512 98.6484 98.834H92.7246C92.7246 96.9941 93.5039 95.5 95.0625 94.3516C96.6328 93.2031 98.6309 92.6289 101.057 92.6289C103.482 92.6289 105.398 93.2207 106.805 94.4043C108.211 95.5879 108.932 97.2109 108.967 99.2734V107.693C108.99 109.439 109.26 110.775 109.775 111.701V112H103.852ZM100.143 108.133C100.881 108.133 101.49 107.975 101.971 107.658C102.463 107.342 102.814 106.984 103.025 106.586V103.545H101.303C99.2402 103.545 98.209 104.471 98.209 106.322C98.209 106.861 98.3906 107.301 98.7539 107.641C99.1172 107.969 99.5801 108.133 100.143 108.133ZM129.92 102.631C129.92 105.584 129.252 107.945 127.916 109.715C126.592 111.473 124.799 112.352 122.537 112.352C120.791 112.352 119.355 111.713 118.23 110.436V119.312H112.307V92.9805H117.844L118.02 94.7383C119.156 93.332 120.65 92.6289 122.502 92.6289C124.846 92.6289 126.668 93.4961 127.969 95.2305C129.27 96.9531 129.92 99.3262 129.92 102.35V102.631ZM123.996 102.262C123.996 98.8867 123.012 97.1992 121.043 97.1992C119.637 97.1992 118.699 97.7031 118.23 98.7109V106.199C118.746 107.254 119.695 107.781 121.078 107.781C122.965 107.781 123.938 106.152 123.996 102.895V102.262ZM131.801 102.314C131.801 100.416 132.17 98.7285 132.908 97.252C133.646 95.7637 134.707 94.6211 136.09 93.8242C137.473 93.0273 139.096 92.6289 140.959 92.6289C143.807 92.6289 146.051 93.5137 147.691 95.2832C149.332 97.041 150.152 99.4375 150.152 102.473V102.684C150.152 105.648 149.326 108.004 147.674 109.75C146.033 111.484 143.807 112.352 140.994 112.352C138.287 112.352 136.113 111.543 134.473 109.926C132.832 108.297 131.947 106.094 131.818 103.316L131.801 102.314ZM137.725 102.684C137.725 104.441 138 105.73 138.551 106.551C139.102 107.371 139.916 107.781 140.994 107.781C143.104 107.781 144.182 106.158 144.229 102.912V102.314C144.229 98.9043 143.139 97.1992 140.959 97.1992C138.979 97.1992 137.906 98.6699 137.742 101.611L137.725 102.684ZM160.875 105.355H159.1V112H153.158V92.9805H159.1V99.8184H160.805L163.828 92.9805H171.422L165.867 101.77H165.885L171.984 112H163.951L160.875 105.355ZM179.279 103.896H174.48L173.725 86.4062H180.035L179.279 103.896ZM173.549 109.346C173.549 108.479 173.859 107.77 174.48 107.219C175.113 106.656 175.898 106.375 176.836 106.375C177.773 106.375 178.553 106.656 179.174 107.219C179.807 107.77 180.123 108.479 180.123 109.346C180.123 110.213 179.807 110.928 179.174 111.49C178.553 112.041 177.773 112.316 176.836 112.316C175.898 112.316 175.113 112.041 174.48 111.49C173.859 110.928 173.549 110.213 173.549 109.346Z" fill="#254F4C"/>
</svg>
