<svg width="69" height="19" viewBox="0 0 69 19" fill="none" xmlns="http://www.w3.org/2000/svg">
<path d="M5.97021 0.226562L9.9375 12.5923L13.8926 0.226562H19.5322V18H15.2354V13.8496L15.6504 5.35352L11.3535 18H8.52148L4.2124 5.34131L4.62744 13.8496V18H0.342773V0.226562H5.97021ZM28.4678 18.2441C26.4414 18.2441 24.8016 17.6419 23.5483 16.4375C22.2951 15.2249 21.6685 13.6502 21.6685 11.7134V11.3716C21.6685 10.0207 21.9167 8.82845 22.4131 7.79492C22.9176 6.76139 23.6501 5.96387 24.6104 5.40234C25.5706 4.83268 26.71 4.54785 28.0283 4.54785C29.8838 4.54785 31.3486 5.12565 32.4229 6.28125C33.4971 7.42871 34.0342 9.0319 34.0342 11.0908V12.6899H25.8555C26.002 13.4305 26.3234 14.0124 26.8198 14.4355C27.3162 14.8587 27.9591 15.0703 28.7485 15.0703C30.0506 15.0703 31.0679 14.6146 31.8003 13.7031L33.6802 15.9248C33.1675 16.6328 32.4391 17.1984 31.4951 17.6216C30.5592 18.0366 29.5501 18.2441 28.4678 18.2441ZM28.0039 7.72168C26.7995 7.72168 26.0833 8.51921 25.8555 10.1143H30.0059V9.79688C30.0221 9.1377 29.8553 8.62907 29.5054 8.271C29.1554 7.90479 28.6549 7.72168 28.0039 7.72168ZM47.4619 18H43.3359V13.105H39.7349V18H35.6211V4.79199H39.7349V9.94336H43.3359V4.79199H47.4619V18ZM54.188 9.6748H55.4819C55.7749 8.07161 56.4666 6.81836 57.5571 5.91504C58.6558 5.00358 60.0392 4.54785 61.7075 4.54785C63.5955 4.54785 65.1051 5.11344 66.2363 6.24463C67.3675 7.36768 67.9819 8.88542 68.0796 10.7979L68.0918 11.5303C68.0918 13.5648 67.5221 15.1924 66.3828 16.4131C65.2435 17.6338 63.6932 18.2441 61.7319 18.2441C60.0067 18.2441 58.5866 17.7721 57.4717 16.8281C56.3649 15.876 55.6895 14.5535 55.4453 12.8608H54.188V18H50.062V4.79199H54.188V9.6748ZM59.4614 11.5303C59.4614 12.751 59.6527 13.6462 60.0352 14.2158C60.4176 14.7855 60.9832 15.0703 61.7319 15.0703C63.1968 15.0703 63.9455 13.9432 63.978 11.689V11.2739C63.978 8.90576 63.2212 7.72168 61.7075 7.72168C60.3322 7.72168 59.5876 8.743 59.4736 10.7856L59.4614 11.5303Z" fill="#254F4C"/>
</svg>
