<svg width="100" height="19" viewBox="0 0 100 19" fill="none" xmlns="http://www.w3.org/2000/svg">
<path d="M15.1987 18H10.9385V10.5781H4.62744V18H0.342773V0.226562H4.62744V7.28223H10.9385V0.226562H15.1987V18ZM17.2129 11.2739C17.2129 9.95557 17.4692 8.78369 17.9819 7.7583C18.4946 6.72477 19.2311 5.93132 20.1914 5.37793C21.1517 4.82454 22.2788 4.54785 23.5728 4.54785C25.5503 4.54785 27.1087 5.16227 28.248 6.39111C29.3874 7.61182 29.957 9.27604 29.957 11.3838V11.5303C29.957 13.5892 29.3833 15.2249 28.2358 16.4375C27.0965 17.6419 25.5503 18.2441 23.5972 18.2441C21.7173 18.2441 20.2077 17.6826 19.0684 16.5596C17.929 15.4284 17.3146 13.8984 17.2251 11.9697L17.2129 11.2739ZM21.3267 11.5303C21.3267 12.751 21.5179 13.6462 21.9004 14.2158C22.2829 14.7855 22.8485 15.0703 23.5972 15.0703C25.062 15.0703 25.8107 13.9432 25.8433 11.689V11.2739C25.8433 8.90576 25.0864 7.72168 23.5728 7.72168C22.1974 7.72168 21.4528 8.743 21.3389 10.7856L21.3267 11.5303ZM32.0444 18V4.79199H37.7085C39.5233 4.79199 40.9108 5.10938 41.8711 5.74414C42.8395 6.37891 43.3237 7.29443 43.3237 8.49072C43.3237 9.10107 43.1121 9.65039 42.689 10.1387C42.2658 10.6188 41.6473 10.9891 40.8335 11.2495C41.8833 11.4285 42.693 11.7785 43.2627 12.2993C43.8324 12.812 44.1172 13.4549 44.1172 14.228C44.1172 15.4731 43.6452 16.4131 42.7012 17.0479C41.7653 17.6745 40.4144 17.9919 38.6484 18H32.0444ZM36.1704 12.6167V14.8506H38.5752C39.0879 14.8506 39.4541 14.7611 39.6738 14.582C39.8936 14.403 40.0034 14.1304 40.0034 13.7642C40.0034 13.0317 39.5802 12.6493 38.7339 12.6167H36.1704ZM36.1704 10.0776H37.8672C38.3636 10.0776 38.7095 9.99626 38.9048 9.8335C39.1082 9.6626 39.21 9.41439 39.21 9.08887C39.21 8.66569 39.0879 8.36865 38.8438 8.19775C38.5996 8.02686 38.2212 7.94141 37.7085 7.94141H36.1704V10.0776ZM53.4922 4.79199H57.6182V18H53.4922V10.3096L49.8667 18H45.7285V4.79199H49.8667V12.458L53.4922 4.79199ZM71.583 18H67.457V13.105H63.856V18H59.7422V4.79199H63.856V9.94336H67.457V4.79199H71.583V18ZM79.4688 13.3857H78.2358V18H74.1099V4.79199H78.2358V9.54053H79.4199L81.5195 4.79199H86.793L82.9355 10.8955H82.9478L87.1836 18H81.605L79.4688 13.3857ZM95.8506 4.79199H99.9766V18H95.8506V10.3096L92.2251 18H88.0869V4.79199H92.2251V12.458L95.8506 4.79199Z" fill="#254F4C"/>
</svg>
