<svg width="99" height="20" viewBox="0 0 99 20" fill="none" xmlns="http://www.w3.org/2000/svg">
<path d="M16.394 10.4795C16.394 12.2129 16.0726 13.7469 15.4297 15.0815C14.7868 16.4162 13.8713 17.4456 12.6831 18.1699C11.5031 18.8861 10.1562 19.2441 8.64258 19.2441C7.12891 19.2441 5.78613 18.8983 4.61426 18.2065C3.44238 17.5067 2.52686 16.5098 1.86768 15.2158C1.21663 13.9219 0.874837 12.4367 0.842285 10.7603V9.75928C0.842285 8.01774 1.15967 6.48372 1.79443 5.15723C2.43734 3.82259 3.35286 2.79313 4.54102 2.06885C5.7373 1.34456 7.09635 0.982422 8.61816 0.982422C10.1237 0.982422 11.4665 1.34049 12.6465 2.05664C13.8265 2.77279 14.742 3.79411 15.3931 5.12061C16.0522 6.43896 16.3859 7.95264 16.394 9.66162V10.4795ZM12.0361 9.73486C12.0361 7.96891 11.7391 6.63021 11.145 5.71875C10.5591 4.79915 9.7168 4.33936 8.61816 4.33936C6.46973 4.33936 5.33447 5.95068 5.2124 9.17334L5.2002 10.4795C5.2002 12.221 5.4891 13.5597 6.06689 14.4956C6.64469 15.4315 7.50326 15.8994 8.64258 15.8994C9.72493 15.8994 10.5591 15.4396 11.145 14.52C11.731 13.6004 12.028 12.278 12.0361 10.5527V9.73486ZM29.9805 8.94141H25.8179V19H21.6797V8.94141H17.5781V5.79199H29.9805V8.94141ZM38.3667 9.78369C38.3667 8.92106 37.911 8.48975 36.9995 8.48975C35.9497 8.48975 35.4248 8.86816 35.4248 9.625H31.311C31.311 8.42871 31.8115 7.45215 32.8125 6.69531C33.8216 5.93848 35.1278 5.56006 36.731 5.56006C38.5132 5.56006 39.917 5.89779 40.9424 6.57324C41.9678 7.24056 42.4805 8.18457 42.4805 9.40527C42.4805 9.99121 42.3014 10.5324 41.9434 11.0288C41.5934 11.5171 41.097 11.9077 40.4541 12.2007C41.9596 12.7297 42.7124 13.751 42.7124 15.2646C42.7124 16.4691 42.1672 17.4334 41.0767 18.1577C39.9943 18.882 38.5457 19.2441 36.731 19.2441C35.0789 19.2441 33.728 18.8698 32.6782 18.1211C31.6284 17.3643 31.1035 16.3551 31.1035 15.0938H35.2173C35.2173 15.4274 35.3556 15.7163 35.6323 15.9604C35.909 16.1965 36.3688 16.3145 37.0117 16.3145C37.5326 16.3145 37.9272 16.1883 38.1958 15.936C38.4725 15.6838 38.6108 15.3379 38.6108 14.8984C38.6108 13.9544 38.0859 13.4661 37.0361 13.4336H35.1929V11.041H36.8652C37.8662 11.041 38.3667 10.6219 38.3667 9.78369ZM48.877 9.41748H50.9888C52.2095 9.41748 53.2837 9.61686 54.2114 10.0156C55.1392 10.4144 55.8472 10.98 56.3354 11.7124C56.8237 12.4448 57.0679 13.2952 57.0679 14.2637C57.0679 15.6878 56.5145 16.8353 55.4077 17.7061C54.3091 18.5687 52.8076 19 50.9033 19H44.7388V5.79199H48.877V9.41748ZM63.1592 19H59.021V5.79199H63.1592V19ZM48.877 12.5791V15.8506H50.9644C51.591 15.8506 52.0793 15.7082 52.4292 15.4233C52.7873 15.1304 52.9663 14.7357 52.9663 14.2393C52.9663 13.751 52.8076 13.3522 52.4902 13.043C52.1729 12.7337 51.6642 12.5791 50.9644 12.5791H48.877ZM66.0522 19V5.79199H71.7163C73.5311 5.79199 74.9186 6.10938 75.8789 6.74414C76.8473 7.37891 77.3315 8.29443 77.3315 9.49072C77.3315 10.1011 77.12 10.6504 76.6968 11.1387C76.2736 11.6188 75.6551 11.9891 74.8413 12.2495C75.8911 12.4285 76.7008 12.7785 77.2705 13.2993C77.8402 13.812 78.125 14.4549 78.125 15.228C78.125 16.4731 77.653 17.4131 76.709 18.0479C75.7731 18.6745 74.4222 18.9919 72.6562 19H66.0522ZM70.1782 13.6167V15.8506H72.583C73.0957 15.8506 73.4619 15.7611 73.6816 15.582C73.9014 15.403 74.0112 15.1304 74.0112 14.7642C74.0112 14.0317 73.5881 13.6493 72.7417 13.6167H70.1782ZM70.1782 11.0776H71.875C72.3714 11.0776 72.7173 10.9963 72.9126 10.8335C73.116 10.6626 73.2178 10.4144 73.2178 10.0889C73.2178 9.66569 73.0957 9.36865 72.8516 9.19775C72.6074 9.02686 72.229 8.94141 71.7163 8.94141H70.1782V11.0776ZM84.2285 9.41748H86.3403C87.561 9.41748 88.6353 9.61686 89.563 10.0156C90.4907 10.4144 91.1987 10.98 91.687 11.7124C92.1753 12.4448 92.4194 13.2952 92.4194 14.2637C92.4194 15.6878 91.866 16.8353 90.7593 17.7061C89.6606 18.5687 88.1592 19 86.2549 19H80.0903V5.79199H84.2285V9.41748ZM98.5107 19H94.3726V5.79199H98.5107V19ZM84.2285 12.5791V15.8506H86.3159C86.9425 15.8506 87.4308 15.7082 87.7808 15.4233C88.1388 15.1304 88.3179 14.7357 88.3179 14.2393C88.3179 13.751 88.1592 13.3522 87.8418 13.043C87.5244 12.7337 87.0158 12.5791 86.3159 12.5791H84.2285Z" fill="#254F4C"/>
</svg>
