<svg width="274" height="26" viewBox="0 0 274 26" fill="none" xmlns="http://www.w3.org/2000/svg">
<path d="M15.272 20H10.9873V5.53467H4.60303V20H0.318359V2.22656H15.272V20ZM17.2373 13.2739C17.2373 11.9556 17.4937 10.7837 18.0063 9.7583C18.519 8.72477 19.2555 7.93132 20.2158 7.37793C21.1761 6.82454 22.3032 6.54785 23.5972 6.54785C25.5747 6.54785 27.1331 7.16227 28.2725 8.39111C29.4118 9.61182 29.9814 11.276 29.9814 13.3838V13.5303C29.9814 15.5892 29.4077 17.2249 28.2603 18.4375C27.1209 19.6419 25.5747 20.2441 23.6216 20.2441C21.7417 20.2441 20.2321 19.6826 19.0928 18.5596C17.9535 17.4284 17.339 15.8984 17.2495 13.9697L17.2373 13.2739ZM21.3511 13.5303C21.3511 14.751 21.5423 15.6462 21.9248 16.2158C22.3073 16.7855 22.8729 17.0703 23.6216 17.0703C25.0864 17.0703 25.8351 15.9432 25.8677 13.689V13.2739C25.8677 10.9058 25.1108 9.72168 23.5972 9.72168C22.2218 9.72168 21.4772 10.743 21.3633 12.7856L21.3511 13.5303ZM43.5312 20H39.3931V16.0327C38.9211 16.1141 38.5142 16.1548 38.1724 16.1548C35.9995 16.1548 34.3638 15.7357 33.2651 14.8975C32.1746 14.0511 31.6253 12.7856 31.6172 11.1011V6.79199H35.731V11.1377C35.7391 11.8538 35.91 12.3421 36.2437 12.6025C36.5773 12.8548 37.2202 12.981 38.1724 12.981C38.5711 12.981 38.978 12.9443 39.3931 12.8711V6.79199H43.5312V20ZM52.125 20.2441C50.0986 20.2441 48.4588 19.6419 47.2056 18.4375C45.9523 17.2249 45.3257 15.6502 45.3257 13.7134V13.3716C45.3257 12.0207 45.5739 10.8285 46.0703 9.79492C46.5749 8.76139 47.3073 7.96387 48.2676 7.40234C49.2279 6.83268 50.3672 6.54785 51.6855 6.54785C53.541 6.54785 55.0059 7.12565 56.0801 8.28125C57.1543 9.42871 57.6914 11.0319 57.6914 13.0908V14.6899H49.5127C49.6592 15.4305 49.9806 16.0124 50.4771 16.4355C50.9735 16.8587 51.6164 17.0703 52.4058 17.0703C53.7078 17.0703 54.7251 16.6146 55.4575 15.7031L57.3374 17.9248C56.8247 18.6328 56.0964 19.1984 55.1523 19.6216C54.2165 20.0366 53.2074 20.2441 52.125 20.2441ZM51.6611 9.72168C50.4567 9.72168 49.7406 10.5192 49.5127 12.1143H53.6631V11.7969C53.6794 11.1377 53.5125 10.6291 53.1626 10.271C52.8127 9.90479 52.3122 9.72168 51.6611 9.72168ZM67.6279 15.459L70.6187 6.79199H75.7944V20H71.6685V12.6758L69.0073 20H66.2729L63.7583 13.0664V20H59.6323V6.79199H64.686L67.6279 15.459ZM83.8267 14.2383L86.0239 6.79199H90.4307L85.0474 22.2095L84.8154 22.771C84.0505 24.48 82.6995 25.3345 80.7627 25.3345C80.2256 25.3345 79.66 25.2531 79.0659 25.0903V22.1484H79.603C80.1808 22.1484 80.6203 22.063 80.9214 21.8921C81.2306 21.7293 81.4585 21.4323 81.605 21.001L81.9346 20.1221L77.3447 6.79199H81.7393L83.8267 14.2383ZM98.0112 20V6.79199H103.675C105.49 6.79199 106.878 7.10938 107.838 7.74414C108.806 8.37891 109.291 9.29443 109.291 10.4907C109.291 11.1011 109.079 11.6504 108.656 12.1387C108.233 12.6188 107.614 12.9891 106.8 13.2495C107.85 13.4285 108.66 13.7785 109.229 14.2993C109.799 14.812 110.084 15.4549 110.084 16.228C110.084 17.4731 109.612 18.4131 108.668 19.0479C107.732 19.6745 106.381 19.9919 104.615 20H98.0112ZM102.137 14.6167V16.8506H104.542C105.055 16.8506 105.421 16.7611 105.641 16.582C105.86 16.403 105.97 16.1304 105.97 15.7642C105.97 15.0317 105.547 14.6493 104.701 14.6167H102.137ZM102.137 12.0776H103.834C104.33 12.0776 104.676 11.9963 104.872 11.8335C105.075 11.6626 105.177 11.4144 105.177 11.0889C105.177 10.6657 105.055 10.3687 104.811 10.1978C104.566 10.0269 104.188 9.94141 103.675 9.94141H102.137V12.0776ZM116.188 10.4175H118.299C119.52 10.4175 120.594 10.6169 121.522 11.0156C122.45 11.4144 123.158 11.98 123.646 12.7124C124.134 13.4448 124.378 14.2952 124.378 15.2637C124.378 16.6878 123.825 17.8353 122.718 18.7061C121.62 19.5687 120.118 20 118.214 20H112.049V6.79199H116.188V10.4175ZM130.47 20H126.332V6.79199H130.47V20ZM116.188 13.5791V16.8506H118.275C118.902 16.8506 119.39 16.7082 119.74 16.4233C120.098 16.1304 120.277 15.7357 120.277 15.2393C120.277 14.751 120.118 14.3522 119.801 14.043C119.483 13.7337 118.975 13.5791 118.275 13.5791H116.188ZM140.028 7.52441C141.753 7.52441 143.12 8.09001 144.129 9.22119C145.147 10.3524 145.655 11.8945 145.655 13.8477V14.0186C145.655 15.2555 145.399 16.3501 144.886 17.3022C144.374 18.2463 143.633 18.9746 142.665 19.4873C141.704 20 140.577 20.2563 139.283 20.2563C137.33 20.2563 135.772 19.6297 134.608 18.3765C133.452 17.1232 132.875 15.3979 132.875 13.2007V12.8101C132.891 9.79899 133.387 7.43083 134.364 5.70557C135.34 3.98031 136.834 2.89388 138.844 2.44629C139.747 2.24284 140.337 2.04753 140.614 1.86035C140.899 1.66504 141.041 1.36393 141.041 0.957031H144.349C144.349 1.97428 144.19 2.7474 143.873 3.27637C143.564 3.80534 143.067 4.24479 142.384 4.59473C141.708 4.93652 140.756 5.22135 139.527 5.44922C138.559 5.62826 137.81 6.01074 137.281 6.59668C136.76 7.17448 136.406 7.98421 136.219 9.02588C137.318 8.0249 138.587 7.52441 140.028 7.52441ZM139.259 10.6982C137.753 10.6982 137 11.7399 137 13.8232V14.0186C137 16.0612 137.761 17.0825 139.283 17.0825C140.756 17.0825 141.509 16.106 141.542 14.1528V13.7622C141.542 11.7196 140.781 10.6982 139.259 10.6982ZM155.006 6.79199H159.132V20H155.006V12.3096L151.38 20H147.242V6.79199H151.38V14.458L155.006 6.79199ZM173.597 13.4937C173.597 15.5444 173.133 17.1842 172.206 18.4131C171.286 19.6338 170.041 20.2441 168.47 20.2441C167.258 20.2441 166.261 19.8006 165.479 18.9136V25.0781H161.366V6.79199H165.211L165.333 8.0127C166.122 7.03613 167.16 6.54785 168.446 6.54785C170.073 6.54785 171.339 7.15007 172.242 8.35449C173.146 9.55078 173.597 11.1987 173.597 13.2983V13.4937ZM169.483 13.2373C169.483 10.8936 168.8 9.72168 167.433 9.72168C166.456 9.72168 165.805 10.0716 165.479 10.7715V15.9717C165.838 16.7041 166.497 17.0703 167.457 17.0703C168.767 17.0703 169.443 15.9391 169.483 13.6768V13.2373ZM182.862 20C182.716 19.7314 182.586 19.3368 182.472 18.8159C181.715 19.7681 180.657 20.2441 179.298 20.2441C178.053 20.2441 176.995 19.8698 176.124 19.1211C175.253 18.3643 174.818 17.4162 174.818 16.2769C174.818 14.8446 175.347 13.7622 176.405 13.0298C177.463 12.2974 179.001 11.9312 181.019 11.9312H182.289V11.2354C182.289 10.0228 181.764 9.4165 180.714 9.4165C179.737 9.4165 179.249 9.89665 179.249 10.8569H175.135C175.135 9.57926 175.676 8.54167 176.759 7.74414C177.849 6.94661 179.237 6.54785 180.921 6.54785C182.606 6.54785 183.937 6.95882 184.913 7.78076C185.89 8.6027 186.39 9.72982 186.415 11.1621V17.0093C186.431 18.2218 186.618 19.1496 186.976 19.7925V20H182.862ZM180.287 17.3145C180.799 17.3145 181.222 17.2046 181.556 16.9849C181.898 16.7651 182.142 16.5169 182.289 16.2402V14.1284H181.092C179.66 14.1284 178.944 14.7713 178.944 16.0571C178.944 16.4315 179.07 16.7367 179.322 16.9727C179.575 17.2005 179.896 17.3145 180.287 17.3145ZM193.177 11.6748H194.471C194.764 10.0716 195.456 8.81836 196.546 7.91504C197.645 7.00358 199.028 6.54785 200.697 6.54785C202.585 6.54785 204.094 7.11344 205.226 8.24463C206.357 9.36768 206.971 10.8854 207.069 12.7979L207.081 13.5303C207.081 15.5648 206.511 17.1924 205.372 18.4131C204.233 19.6338 202.682 20.2441 200.721 20.2441C198.996 20.2441 197.576 19.7721 196.461 18.8281C195.354 17.876 194.679 16.5535 194.435 14.8608H193.177V20H189.051V6.79199H193.177V11.6748ZM198.451 13.5303C198.451 14.751 198.642 15.6462 199.024 16.2158C199.407 16.7855 199.972 17.0703 200.721 17.0703C202.186 17.0703 202.935 15.9432 202.967 13.689V13.2739C202.967 10.9058 202.21 9.72168 200.697 9.72168C199.321 9.72168 198.577 10.743 198.463 12.7856L198.451 13.5303ZM220.509 9.94141H216.346V20H212.208V9.94141H208.106V6.79199H220.509V9.94141ZM240.04 20H235.914V15.105H232.313V20H228.199V6.79199H232.313V11.9434H235.914V6.79199H240.04V20ZM249.732 20C249.586 19.7314 249.456 19.3368 249.342 18.8159C248.585 19.7681 247.527 20.2441 246.168 20.2441C244.923 20.2441 243.865 19.8698 242.994 19.1211C242.123 18.3643 241.688 17.4162 241.688 16.2769C241.688 14.8446 242.217 13.7622 243.275 13.0298C244.333 12.2974 245.871 11.9312 247.889 11.9312H249.159V11.2354C249.159 10.0228 248.634 9.4165 247.584 9.4165C246.607 9.4165 246.119 9.89665 246.119 10.8569H242.005C242.005 9.57926 242.547 8.54167 243.629 7.74414C244.719 6.94661 246.107 6.54785 247.792 6.54785C249.476 6.54785 250.807 6.95882 251.783 7.78076C252.76 8.6027 253.26 9.72982 253.285 11.1621V17.0093C253.301 18.2218 253.488 19.1496 253.846 19.7925V20H249.732ZM247.157 17.3145C247.669 17.3145 248.093 17.2046 248.426 16.9849C248.768 16.7651 249.012 16.5169 249.159 16.2402V14.1284H247.962C246.53 14.1284 245.814 14.7713 245.814 16.0571C245.814 16.4315 245.94 16.7367 246.192 16.9727C246.445 17.2005 246.766 17.3145 247.157 17.3145ZM261.158 17.0703C261.736 17.0703 262.184 16.9157 262.501 16.6064C262.818 16.2891 262.973 15.8496 262.965 15.2881H266.822C266.822 16.7367 266.301 17.9248 265.26 18.8525C264.226 19.7803 262.892 20.2441 261.256 20.2441C259.335 20.2441 257.822 19.6419 256.715 18.4375C255.608 17.2331 255.055 15.5648 255.055 13.4326V13.2617C255.055 11.9271 255.299 10.7511 255.787 9.73389C256.284 8.7085 256.996 7.92318 257.923 7.37793C258.851 6.82454 259.95 6.54785 261.219 6.54785C262.936 6.54785 264.299 7.02393 265.309 7.97607C266.318 8.92822 266.822 10.2181 266.822 11.8457H262.965C262.965 11.1621 262.798 10.6372 262.464 10.271C262.131 9.90479 261.683 9.72168 261.122 9.72168C260.056 9.72168 259.433 10.4012 259.254 11.7603C259.197 12.1916 259.168 12.7856 259.168 13.5425C259.168 14.869 259.327 15.7886 259.645 16.3013C259.962 16.814 260.466 17.0703 261.158 17.0703ZM271.119 16.0083C271.77 16.0083 272.311 16.2036 272.743 16.5942C273.174 16.9767 273.39 17.4691 273.39 18.0713C273.39 18.6735 273.174 19.1699 272.743 19.5605C272.311 19.943 271.77 20.1343 271.119 20.1343C270.46 20.1343 269.915 19.939 269.483 19.5483C269.06 19.1577 268.849 18.6654 268.849 18.0713C268.849 17.4772 269.06 16.9849 269.483 16.5942C269.915 16.2036 270.46 16.0083 271.119 16.0083ZM271.119 6.26709C271.77 6.26709 272.311 6.4624 272.743 6.85303C273.174 7.23551 273.39 7.72786 273.39 8.33008C273.39 8.93229 273.174 9.42871 272.743 9.81934C272.311 10.2018 271.77 10.3931 271.119 10.3931C270.46 10.3931 269.915 10.1978 269.483 9.80713C269.06 9.4165 268.849 8.92415 268.849 8.33008C268.849 7.736 269.06 7.24365 269.483 6.85303C269.915 6.4624 270.46 6.26709 271.119 6.26709Z" fill="#254F4C"/>
</svg>
